[Header]
FileType HTR
DataType HTRS
FileVersion 1
NumSegments 22
NumFrames 8
DataFrameRate 24
EulerRotationOrder ZYX
CalibrationUnits mm
RotationUnits Degrees
GlobalAxisofGravity Y
BoneLengthAxis Y
ScaleFactor 1.0
[SegmentNames&Hierarchy]
reference	GLOBAL
Hips	reference
Spine	Hips
Spine1	Spine
Neck	Spine1
Head	Neck
LeftShoulder	Spine1
LeftArm	LeftShoulder
LeftForeArm	LeftArm
LeftHand	LeftForeArm
RightShoulder	Spine1
RightArm	RightShoulder
RightForeArm	RightArm
RightHand	RightForeArm
LeftUpLeg	Hips
LeftLeg	LeftUpLeg
LeftFoot	LeftLeg
LeftToeBase	LeftFoot
RightUpLeg	Hips
RightLeg	RightUpLeg
RightFoot	RightLeg
RightToeBase	RightFoot
[BasePosition]
reference	0	0	0	0	0	0	1
Hips	0	0	0	0	0	0	1
Spine	0	0	0	0	-0	90	1
Spine1	0	0	0	0	0	0	1
Neck	0	0	0	-7.352430803	-7.352430803	90	1
Head	0	0	0	0	-0	90	1
LeftShoulder	0	0	0	0	0	0	1
LeftArm	0	0	0	0	0	0	1
LeftForeArm	0	0	0	0	0	0	1
LeftHand	0	0	0	0	0	0	1
RightShoulder	0	0	0	0	-0	180	1
RightArm	0	0	0	0	-0	180	1
RightForeArm	0	0	0	0	-0	180	1
RightHand	0	0	0	0	-0	180	1
LeftUpLeg	0	0	0	0	-0	-90	1
LeftLeg	0	0	0	0	-0	-90	1
LeftFoot	0	0	0	66.57150701	-66.57150701	-90	1
LeftToeBase	0	0	0	0	-90	0	1
RightUpLeg	0	0	0	0	-0	-90	1
RightLeg	0	0	0	0	-0	-90	1
RightFoot	0	0	0	66.57150701	-66.57150701	-90	1
RightToeBase	0	0	0	0	-90	0	1
[reference]
38	0	0	0	0	-0	0	1.0
39	0	0	0	0	-0	0	1.0
40	0	0	0	0	-0	0	1.0
41	0	0	0	0	-0	0	1.0
42	0	0	0	0	-0	0	1.0
43	0	0	0	0	-0	0	1.0
44	0	0	0	0	-0	0	1.0
45	0	0	0	0	-0	0	1.0
[Hips]
38	4.149285793	8.754480362	3.741302967	3.308236361	-134.2888641	2.721263885	1.0
39	4.258056641	8.846932411	3.927092314	4.707305431	-133.7044525	1.864707589	1.0
40	4.339318275	8.857058525	4.12225008	5.869297981	-133.8171082	1.008188248	1.0
41	4.418353081	8.863620758	4.331497192	6.737181664	-134.1595306	0.06504369527	1.0
42	4.512384415	8.867589951	4.539963245	6.704803467	-134.6570587	0.5669665933	1.0
43	4.621010303	8.869941711	4.779799938	6.541244507	-134.9097595	1.044433594	1.0
44	4.747747421	8.871645927	5.045768738	5.769131184	-135.1171722	1.14291358	1.0
45	4.898701191	8.871070862	5.337312222	4.494572639	-136.1632843	1.576225042	1.0
[Spine]
38	0	0.7478299737	0	-7.570030689	3.304526567	-90.69217682	1.0
39	0	0.7478299737	0	-9.125681877	2.11610961	-91.80788422	1.0
40	0	0.7478299737	0	-10.36508274	1.718885422	-92.45649719	1.0
41	0	0.7478299737	0	-11.34311104	0.6408219934	-92.22002411	1.0
42	0	0.7478299737	0	-12.85764885	-0.2959037125	-91.51824951	1.0
43	0	0.7478299737	0	-13.46138287	-1.600648165	-90.51353455	1.0
44	0	0.7478299737	0	-13.1160984	-2.921602726	-90.19088745	1.0
45	0	0.7478299737	0	-11.53520298	-3.442094803	-90.19544983	1.0
[Spine1]
38	0	2.049309969	0	7.982846737	1.109038115	0.7301508188	1.0
39	0	2.049309969	0	6.627835274	0.6968005896	1.385187984	1.0
40	0	2.049309969	0	5.782261848	0.5382002592	1.675681829	1.0
41	0	2.049309969	0	4.654866219	0.2582069039	0.6683954597	1.0
42	0	2.049309969	0	4.562526703	-0.07542667538	0.4471021891	1.0
43	0	2.049309969	0	4.541219711	-0.5188899636	0.3583953977	1.0
44	0	2.049309969	0	4.827845097	-0.9737899899	0.2659936249	1.0
45	0	2.049309969	0	4.102860928	-1.181853414	1.040335298	1.0
[Neck]
38	0	2.231709957	0	-9.778058052	11.34499741	-87.24438477	1.0
39	0	2.231709957	0	-8.107553482	11.45377159	-87.39047241	1.0
40	0	2.231709957	0	-5.851708889	11.24082661	-87.03048706	1.0
41	0	2.231709957	0	-4.58856535	11.72792625	-86.81203461	1.0
42	0	2.231709957	0	-4.173612118	12.35426712	-87.18742371	1.0
43	0	2.231709957	0	-3.90575242	13.24628162	-86.56417847	1.0
44	0	2.231709957	0	-3.054298878	13.86634827	-85.45560455	1.0
45	0	2.231709957	0	-4.276883125	14.23723698	-86.36646271	1.0
[Head]
38	0	1.413589954	0.1823999882	-3.039878845	4.219623566	-91.3087616	1.0
39	0	1.413589954	0.1823999882	-3.379307508	4.344628811	-91.16324615	1.0
40	0	1.413589954	0.1823999882	-4.923718452	4.227404118	-92.18464661	1.0
41	0	1.413589954	0.1823999882	-5.26212883	4.775770664	-92.47157288	1.0
42	0	1.413589954	0.1823999882	-5.630118847	5.399766922	-92.41351318	1.0
43	0	1.413589954	0.1823999882	-5.295461655	6.361716747	-92.54032135	1.0
44	0	1.413589954	0.1823999882	-5.665837288	7.149794579	-93.86186981	1.0
45	0	1.413589954	0.1823999882	-3.504065275	7.465811729	-92.7740097	1.0
[LeftShoulder]
38	0.3649300039	1.825889945	-0.04271000251	-11.17504215	-6.528199673	2.141533613	1.0
39	0.3649300039	1.825889945	-0.04271000251	-11.4015913	-7.088550091	2.361835957	1.0
40	0.3649300039	1.825889945	-0.04271000251	-11.43271446	-7.845827103	2.282760143	1.0
41	0.3649300039	1.825889945	-0.04271000251	-11.67883205	-7.63739872	3.363404989	1.0
42	0.3649300039	1.825889945	-0.04271000251	-12.54118919	-7.697459221	3.804840088	1.0
43	0.3649300039	1.825889945	-0.04271000251	-12.40156937	-7.890206337	3.484502316	1.0
44	0.3649300039	1.825889945	-0.04271000251	-12.18867302	-8.767504692	3.182487488	1.0
45	0.3649300039	1.825889945	-0.04271000251	-12.29712677	-9.533154488	2.61521697	1.0
[LeftArm]
38	1.24003005	0	0	46.82745743	6.647641182	-81.31980896	1.0
39	1.24003005	0	0	50.05295563	4.602087021	-80.98146057	1.0
40	1.24003005	0	0	52.53959656	2.385843515	-79.89271545	1.0
41	1.24003005	0	0	53.56927109	0.7422497272	-79.55204773	1.0
42	1.24003005	0	0	54.99625397	-0.2604367137	-79.30400848	1.0
43	1.24003005	0	0	56.24200439	-1.888836384	-79.15861511	1.0
44	1.24003005	0	0	55.85805511	-3.366783381	-79.35955811	1.0
45	1.24003005	0	0	58.54058838	-3.628161669	-80.18019104	1.0
[LeftForeArm]
38	2.847419977	0	0	-17.33620644	-17.49830055	3.249697208	1.0
39	2.847419977	0	0	-14.80322552	-23.68935966	4.653568268	1.0
40	2.847419977	0	0	-13.21295547	-30.78304672	5.591272354	1.0
41	2.847419977	0	0	-12.57962418	-37.16953278	6.323739052	1.0
42	2.847419977	0	0	-13.52963924	-41.81736755	8.257423401	1.0
43	2.847419977	0	0	-15.32636929	-43.74626923	11.16147041	1.0
44	2.847419977	0	0	-16.05675507	-43.02571487	11.94504929	1.0
45	2.847419977	0	0	-18.34755707	-40.09101105	14.76720905	1.0
[LeftHand]
38	2.258270025	0	0	-16.84423637	-5.391465187	0.1360349059	1.0
39	2.258270025	0	0	-13.79933834	-7.750912189	-0.3958276212	1.0
40	2.258270025	0	0	-11.60781097	-8.727830887	-0.8368164897	1.0
41	2.258270025	0	0	-10.24329567	-9.900737762	-2.388222933	1.0
42	2.258270025	0	0	-10.0759573	-10.72732735	-3.135630608	1.0
43	2.258270025	0	0	-10.51748085	-11.11438751	-3.244737864	1.0
44	2.258270025	0	0	-11.10232544	-10.69958115	-2.468530178	1.0
45	2.258270025	0	0	-12.74369621	-10.26079464	-2.101212502	1.0
[RightShoulder]
38	-0.3646599948	1.825889945	-0.04271000251	-9.395458221	10.96512127	-181.227951	1.0
39	-0.3646599948	1.825889945	-0.04271000251	-8.117593765	10.55875206	-181.629776	1.0
40	-0.3646599948	1.825889945	-0.04271000251	-6.351701736	9.647685051	-182.4045715	1.0
41	-0.3646599948	1.825889945	-0.04271000251	-5.209351063	8.746833801	-183.3275452	1.0
42	-0.3646599948	1.825889945	-0.04271000251	-4.673288345	7.787715912	-184.4965515	1.0
43	-0.3646599948	1.825889945	-0.04271000251	-4.794775009	7.204205036	-184.9053345	1.0
44	-0.3646599948	1.825889945	-0.04271000251	-4.168046474	7.014221668	-184.3753357	1.0
45	-0.3646599948	1.825889945	-0.04271000251	-4.497079849	6.222027779	-185.0169067	1.0
[RightArm]
38	-1.24003005	0	0	42.75452042	-0.5761249065	-98.95195007	1.0
39	-1.24003005	0	0	34.99359131	-4.971338272	-101.9159241	1.0
40	-1.24003005	0	0	28.58136559	-8.794241905	-105.1178131	1.0
41	-1.24003005	0	0	23.2897377	-12.37077999	-108.0093842	1.0
42	-1.24003005	0	0	22.14396858	-14.97804546	-110.4621887	1.0
43	-1.24003005	0	0	18.42527008	-16.66124535	-112.684967	1.0
44	-1.24003005	0	0	15.43252563	-16.28253555	-114.498642	1.0
45	-1.24003005	0	0	14.95561314	-15.44159317	-114.5400009	1.0
[RightForeArm]
38	-2.847419977	0	0	3.212783813	10.43738461	179.3703918	1.0
39	-2.847419977	0	0	5.750819683	7.77294302	182.8251038	1.0
40	-2.847419977	0	0	8.11903286	6.840176105	185.512207	1.0
41	-2.847419977	0	0	10.44259834	6.882813931	187.7842102	1.0
42	-2.847419977	0	0	10.63747978	7.634725094	188.0338287	1.0
43	-2.847419977	0	0	11.42555904	7.38717556	188.5572052	1.0
44	-2.847419977	0	0	11.36194897	7.093071938	187.9039612	1.0
45	-2.847419977	0	0	10.96894169	6.714133739	187.0162048	1.0
[RightHand]
38	-2.258270025	0	0	3.033810854	4.039561272	-186.5964813	1.0
39	-2.258270025	0	0	5.466160774	2.997843266	-183.5701599	1.0
40	-2.258270025	0	0	7.761816978	2.940573454	-181.0610809	1.0
41	-2.258270025	0	0	9.958554268	2.418436766	-180.7200317	1.0
42	-2.258270025	0	0	10.09059906	2.352998257	-180.4883118	1.0
43	-2.258270025	0	0	10.84971809	2.030219793	-181.1871033	1.0
44	-2.258270025	0	0	10.84618473	1.506196499	-181.9569397	1.0
45	-2.258270025	0	0	10.52423382	1.389796138	-182.66362	1.0
[LeftUpLeg]
38	0.9119900465	0	0	-27.49657249	-11.42207241	98.74710083	1.0
39	0.9119900465	0	0	-23.77839279	-12.84923935	97.28518677	1.0
40	0.9119900465	0	0	-18.58861542	-8.088064194	93.1391449	1.0
41	0.9119900465	0	0	-13.48548508	-2.637693405	89.84075165	1.0
42	0.9119900465	0	0	-8.783608437	-1.985328913	89.80877686	1.0
43	0.9119900465	0	0	-5.000132561	-3.179429531	89.59202576	1.0
44	0.9119900465	0	0	-1.33295536	-3.119791269	89.47819519	1.0
45	0.9119900465	0	0	2.001944542	-0.2824617624	89.45371246	1.0
[LeftLeg]
38	0	-4.371409893	0	28.52714348	1.307617188	82.70141602	1.0
39	0	-4.371409893	0	29.28512001	2.834998369	84.07234192	1.0
40	0	-4.371409893	0	31.40947914	-1.234591961	85.97080994	1.0
41	0	-4.371409893	0	32.28969955	-4.847549438	88.24352264	1.0
42	0	-4.371409893	0	31.94045639	-1.892426014	90.51446533	1.0
43	0	-4.371409893	0	30.39678955	-0.8098248839	90.98322296	1.0
44	0	-4.371409893	0	27.59790611	-2.369313478	89.74708557	1.0
45	0	-4.371409893	0	22.33278084	-1.085422158	91.12303162	1.0
[LeftFoot]
38	0	-3.918009996	0	-83.30174255	105.8245239	-37.80796814	1.0
39	0	-3.918009996	0	-81.06658173	106.7590256	-34.57882309	1.0
40	0	-3.918009996	0	-79.87042999	103.6013718	-34.57721329	1.0
41	0	-3.918009996	0	-87.91677856	103.439827	-43.73300171	1.0
42	0	-3.918009996	0	-92.3649292	100.5331268	-49.99874878	1.0
43	0	-3.918009996	0	-85.96117401	100.8116074	-43.41400909	1.0
44	0	-3.918009996	0	-80.20875549	104.5785599	-39.8846283	1.0
45	0	-3.918009996	0	-99.62379456	98.46531677	-59.67949677	1.0
[LeftToeBase]
38	0	-0.5927900076	1.367989898	0	0	0	1.0
39	0	-0.5927900076	1.367989898	0	0	0	1.0
40	0	-0.5927900076	1.367989898	0	0	0	1.0
41	0	-0.5927900076	1.367989898	0	0	0	1.0
42	0	-0.5927900076	1.367989898	0	0	0	1.0
43	0	-0.5927900076	1.367989898	0	0	0	1.0
44	0	-0.5927900076	1.367989898	0	0	0	1.0
45	0	-0.5927900076	1.367989898	0	0	0	1.0
[RightUpLeg]
38	-0.9119900465	0	0	-7.150230408	-9.105417252	99.95023346	1.0
39	-0.9119900465	0	0	-6.846689224	-7.39282465	98.7021637	1.0
40	-0.9119900465	0	0	-5.806005001	-7.115010262	97.1036377	1.0
41	-0.9119900465	0	0	-5.268908501	-6.436448097	95.18415833	1.0
42	-0.9119900465	0	0	-5.479683399	-5.786708832	94.82424927	1.0
43	-0.9119900465	0	0	-6.377243519	-5.796010971	94.72153473	1.0
44	-0.9119900465	0	0	-7.608046532	-5.397323608	94.34505463	1.0
45	-0.9119900465	0	0	-9.698702812	-4.263822079	94.31227112	1.0
[RightLeg]
38	0	-4.371409893	0	18.9818325	1.61463666	88.73781586	1.0
39	0	-4.371409893	0	12.88773346	-0.4065330625	89.15444946	1.0
40	0	-4.371409893	0	7.311761856	-1.06241262	90.10515594	1.0
41	0	-4.371409893	0	3.385288477	-1.560254216	91.70533752	1.0
42	0	-4.371409893	0	0.4050981998	-0.9563424587	92.30973053	1.0
43	0	-4.371409893	0	-1.646594167	-2.589371443	92.25144958	1.0
44	0	-4.371409893	0	-1.637767553	-2.649916172	92.17736816	1.0
45	0	-4.371409893	0	0.01199296489	-3.097578049	91.42391205	1.0
[RightFoot]
38	0	-3.918009996	0	22.28157425	60.14517975	62.78869247	1.0
39	0	-3.918009996	0	24.25374031	61.39855194	59.65026474	1.0
40	0	-3.918009996	0	29.17863846	61.95761108	60.84140396	1.0
41	0	-3.918009996	0	28.69355011	63.60938644	57.14687347	1.0
42	0	-3.918009996	0	30.36636162	62.05012131	57.9743042	1.0
43	0	-3.918009996	0	34.33673477	63.60131454	60.44101334	1.0
44	0	-3.918009996	0	35.12627029	63.32312775	59.99676895	1.0
45	0	-3.918009996	0	36.01990891	63.62568665	60.75556183	1.0
[RightToeBase]
38	0	-0.5927900076	1.367989898	0	0	0	1.0
39	0	-0.5927900076	1.367989898	0	0	0	1.0
40	0	-0.5927900076	1.367989898	0	0	0	1.0
41	0	-0.5927900076	1.367989898	0	0	0	1.0
42	0	-0.5927900076	1.367989898	0	0	0	1.0
43	0	-0.5927900076	1.367989898	0	0	0	1.0
44	0	-0.5927900076	1.367989898	0	0	0	1.0
45	0	-0.5927900076	1.367989898	0	0	0	1.0
[EndOfFile]
